<?xml version="1.0" standalone="no"?>
<!DOCTYPE svg PUBLIC "-//W3C//DTD SVG 20010904//EN"
 "http://www.w3.org/TR/2001/REC-SVG-20010904/DTD/svg10.dtd">
<svg version="1.0" xmlns="http://www.w3.org/2000/svg"
 width="512.000000pt" height="512.000000pt" viewBox="0 0 512.000000 512.000000"
 preserveAspectRatio="xMidYMid meet">
<metadata>
Created by potrace 1.14, written by Peter Selinger 2001-2017
</metadata>
<g transform="translate(0.000000,512.000000) scale(0.100000,-0.100000)"
fill="#000000" stroke="none">
<path d="M2517 4154 c-1 -1 -58 -4 -127 -8 -69 -3 -136 -8 -150 -10 -25 -4
-112 -17 -140 -21 -16 -2 -111 -21 -145 -29 -88 -20 -123 -29 -220 -59 -229
-70 -493 -192 -669 -308 -32 -22 -60 -39 -62 -39 -2 0 -12 -6 -21 -14 -10 -8
-56 -43 -103 -78 -116 -86 -149 -115 -270 -232 -67 -65 -91 -92 -171 -186 -34
-41 -70 -119 -76 -165 -7 -62 20 -137 63 -174 41 -37 71 -46 144 -46 79 1 124
31 288 193 77 75 150 146 163 157 111 94 326 245 348 245 6 0 11 4 11 8 0 10
173 97 270 136 36 15 74 31 85 36 22 11 169 59 200 65 11 3 49 12 84 21 78 19
94 23 146 30 22 3 51 8 65 10 138 20 455 27 575 11 115 -15 175 -24 215 -33
14 -3 36 -7 50 -10 14 -3 33 -7 42 -10 9 -3 25 -7 35 -9 66 -14 228 -70 332
-114 301 -130 507 -273 781 -541 167 -164 206 -191 288 -195 100 -6 178 47
202 136 36 134 -32 240 -344 534 -12 11 -44 38 -71 60 -28 21 -52 42 -55 45
-9 12 -205 149 -230 162 -14 7 -27 15 -30 18 -38 38 -358 191 -515 247 -38 13
-77 27 -85 30 -8 3 -19 7 -25 8 -5 2 -41 12 -80 23 -80 24 -284 67 -365 77
-30 4 -63 9 -74 11 -38 7 -353 23 -359 18z"/>
<path d="M2507 3324 c-1 -1 -40 -4 -87 -8 -333 -22 -649 -130 -945 -321 -33
-21 -62 -41 -65 -44 -3 -3 -31 -25 -62 -49 -82 -61 -250 -228 -292 -290 -57
-85 -60 -151 -9 -229 34 -53 93 -83 166 -84 77 -2 115 20 228 133 112 110 157
148 265 220 125 84 320 173 449 205 154 38 219 46 385 47 201 1 263 -5 385
-38 33 -9 71 -19 84 -22 44 -9 206 -77 281 -117 151 -81 247 -155 409 -314 45
-45 98 -89 117 -98 62 -29 134 -24 204 14 31 18 46 36 70 86 46 96 13 171
-144 330 -287 290 -649 478 -1060 551 -92 16 -369 37 -379 28z"/>
<path d="M2477 2564 c-1 -2 -29 -5 -62 -9 -33 -4 -87 -13 -120 -21 -33 -8 -69
-16 -80 -19 -32 -7 -143 -54 -215 -90 -145 -74 -333 -236 -371 -320 -34 -73
-16 -169 42 -222 42 -38 144 -49 213 -23 14 5 60 42 103 81 104 97 214 164
318 195 6 2 35 10 65 19 31 9 102 18 165 19 99 3 134 -1 257 -29 37 -8 142
-55 194 -86 30 -19 95 -70 144 -115 96 -88 130 -103 213 -98 102 7 158 67 163
174 2 44 -3 64 -23 100 -28 47 -129 152 -185 191 -18 13 -35 26 -38 29 -32 37
-264 151 -360 176 -74 19 -145 34 -195 40 -56 6 -223 12 -228 8z"/>
<path d="M2443 1817 c-137 -34 -246 -125 -311 -257 -78 -161 -40 -389 88 -520
41 -42 140 -110 160 -110 9 0 20 -4 26 -9 17 -15 118 -29 181 -25 194 12 355
136 418 323 59 175 6 370 -138 501 -29 27 -121 78 -172 95 -67 23 -165 24
-252 2z"/>
</g>
</svg>
